<?xml version="1.0" encoding="utf-8"?>
<?xml-stylesheet type="text/xsl" href="rss1.xsl"?>
<rss version="2.0" xmlns:atom="http://www.w3.org/2005/Atom" xmlns:content="http://purl.org/rss/1.0/modules/content/" xmlns:dc="http://purl.org/dc/elements/1.1/" xmlns:media="http://search.yahoo.com/mrss/">
<channel>
 <title>Getty</title>
 <link>http://www.gettyimg.com/</link>
 <atom:link href="http://www.gettyimg.com/" rel="self" type="application/rss+xml" />

 
                <item>
                <title><![CDATA[【HD Live Performances】FEED - One Love Manchester (2017) 1080i HDTV Backhaul FLAC 4.0 H.264-TrollHD [CHAPTER MENU]]]></title>
                <link><![CDATA[https://sharemania.us/threads/one-love-manchester-2017-1080i-hdtv-backhaul-flac-4-0-h-264-trollhd-chapter-menu.250480/]]></link>
                <description><![CDATA[<article>
<blockquote class="messageText SelectQuoteContainer ugc baseHtml">
<img src="https://i.postimg.cc/v82dckgT/One-Love-Manchester-Banner.png" class="bbCodeImage LbImage" alt="[​IMG]" data-url="https://i.postimg.cc/v82dckgT/One-Love-Manchester-Banner.png" style=""><br>
<img src="https://i.postimg.cc/QCzLwKG1/Cap-tulos-OLM.jpg" class="bbCodeImage LbImage" alt="[​IMG]" data-url="https://i.postimg.cc/QCzLwKG1/Cap-tulos-OLM.jpg" style=""><br>
<div style="text-align: center"><a href="https://postimg.cc/5XgKMLWk" target="_blank" class="externalLink" rel="nofollow"><img src="https://i.postimg.cc/9RQYtn4W/One-Love-Manchester-2017-1080i-HDTV-Backhaul-FLAC-4-0-H-264-Troll-HD-mkv-20240223-145140-582.jpg" class="bbCodeImage LbImage" alt="[​IMG]" data-url="https://i.postimg.cc/9RQYtn4W/One-Love-Manchester-2017-1080i-HDTV-Backhaul-FLAC-4-0-H-264-Troll-HD-mkv-20240223-145140-582.jpg"> <img src="https://i.postimg.cc/5XgKMLWk/image.png" class="bbCodeImage LbImage" alt="[​IMG]" data-url="https://i.postimg.cc/5XgKMLWk/image.png"></a> <a href="https://postimg.cc/FfqZ9xWG" target="_blank" class="externalLink" rel="nofollow"><img src="https://i.postimg.cc/FfqZ9xWG/image.png" class="bbCodeImage LbImage" alt="[​IMG]" data-url="https://i.postimg.cc/FfqZ9xWG/image.png"></a> <a href="https://postimg.cc/crXkpfSk" target="_blank" class="externalLink" rel="nofollow"><img src="https://i.postimg.cc/crXkpfSk/image.png" class="bbCodeImage LbImage" alt="[​IMG]" data-url="https://i.postimg.cc/crXkpfSk/image.png"></a> <a href="https://postimg.cc/y37n58rz" target="_blank" class="externalLink" rel="nofollow"><img src="https://i.postimg.cc/y37n58rz/image.png" class="bbCodeImage LbImage" alt="[​IMG]" data-url="https://i.postimg.cc/y37n58rz/image.png"></a> <a href="https://postimg.cc/bZnCsWnW" target="_blank" class="externalLink" rel="nofollow"><img src="https://i.postimg.cc/bZnCsWnW/One-Love-Manchester-2017-1080i-HDTV-Backhaul-FLAC-4-0-H-264-Troll-HD-mkv-20240223-145015-340.jpg" class="bbCodeImage LbImage" alt="[​IMG]" data-url="https://i.postimg.cc/bZnCsWnW/One-Love-Manchester-2017-1080i-HDTV-Backhaul-FLAC-4-0-H-264-Troll-HD-mkv-20240223-145015-340.jpg"></a> <a href="https://postimg.cc/sQTKkrFQ" target="_blank" class="externalLink" rel="nofollow"><img src="https://i.postimg.cc/sQTKkrFQ/One-Love-Manchester-2017-1080i-HDTV-Backhaul-FLAC-4-0-H-264-Troll-HD-mkv-20240223-145035-888.jpg" class="bbCodeImage LbImage" alt="[​IMG]" data-url="https://i.postimg.cc/sQTKkrFQ/One-Love-Manchester-2017-1080i-HDTV-Backhaul-FLAC-4-0-H-264-Troll-HD-mkv-20240223-145035-888.jpg"></a> <a href="https://postimg.cc/5Qjp1R1P" target="_blank" class="externalLink" rel="nofollow"><img src="https://i.postimg.cc/5Qjp1R1P/One-Love-Manchester-2017-1080i-HDTV-Backhaul-FLAC-4-0-H-264-Troll-HD-mkv-20240223-145037-435.jpg" class="bbCodeImage LbImage" alt="[​IMG]" data-url="https://i.postimg.cc/5Qjp1R1P/One-Love-Manchester-2017-1080i-HDTV-Backhaul-FLAC-4-0-H-264-Troll-HD-mkv-20240223-145037-435.jpg"></a> <a href="https://postimg.cc/9zfLGrTG" target="_blank" class="externalLink" rel="nofollow"><img src="https://i.postimg.cc/9zfLGrTG/One-Love-Manchester-2017-1080i-HDTV-Backhaul-FLAC-4-0-H-264-Troll-HD-mkv-20240223-145041-022.jpg" class="bbCodeImage LbImage" alt="[​IMG]" data-url="https://i.postimg.cc/9zfLGrTG/One-Love-Manchester-2017-1080i-HDTV-Backhaul-FLAC-4-0-H-264-Troll-HD-mkv-20240223-145041-022.jpg"></a> <a href="https://postimg.cc/SjtDVk7H" target="_blank" class="externalLink" rel="nofollow"><img src="https://i.postimg.cc/SjtDVk7H/One-Love-Manchester-2017-1080i-HDTV-Backhaul-FLAC-4-0-H-264-Troll-HD-mkv-20240223-145045-143.jpg" class="bbCodeImage LbImage" alt="[​IMG]" data-url="https://i.postimg.cc/SjtDVk7H/One-Love-Manchester-2017-1080i-HDTV-Backhaul-FLAC-4-0-H-264-Troll-HD-mkv-20240223-145045-143.jpg"></a> <a href="https://postimg.cc/mtzV5Jmk" target="_blank" class="externalLink" rel="nofollow"><img src="https://i.postimg.cc/mtzV5Jmk/One-Love-Manchester-2017-1080i-HDTV-Backhaul-FLAC-4-0-H-264-Troll-HD-mkv-20240223-145047-877.jpg" class="bbCodeImage LbImage" alt="[​IMG]" data-url="https://i.postimg.cc/mtzV5Jmk/One-Love-Manchester-2017-1080i-HDTV-Backhaul-FLAC-4-0-H-264-Troll-HD-mkv-20240223-145047-877.jpg"></a> <a href="https://postimg.cc/3k21Kp5H" target="_blank" class="externalLink" rel="nofollow"><img src="https://i.postimg.cc/3k21Kp5H/One-Love-Manchester-2017-1080i-HDTV-Backhaul-FLAC-4-0-H-264-Troll-HD-mkv-20240223-145108-300.jpg" class="bbCodeImage LbImage" alt="[​IMG]" data-url="https://i.postimg.cc/3k21Kp5H/One-Love-Manchester-2017-1080i-HDTV-Backhaul-FLAC-4-0-H-264-Troll-HD-mkv-20240223-145108-300.jpg"></a> <a href="https://postimg.cc/3y7BWRY0" target="_blank" class="externalLink" rel="nofollow"><img src="https://i.postimg.cc/3y7BWRY0/One-Love-Manchester-2017-1080i-HDTV-Backhaul-FLAC-4-0-H-264-Troll-HD-mkv-20240223-145119-193.jpg" class="bbCodeImage LbImage" alt="[​IMG]" data-url="https://i.postimg.cc/3y7BWRY0/One-Love-Manchester-2017-1080i-HDTV-Backhaul-FLAC-4-0-H-264-Troll-HD-mkv-20240223-145119-193.jpg"></a> <a href="https://postimg.cc/Ny4xXcjJ" target="_blank" class="externalLink" rel="nofollow"><img src="https://i.postimg.cc/Ny4xXcjJ/One-Love-Manchester-2017-1080i-HDTV-Backhaul-FLAC-4-0-H-264-Troll-HD-mkv-20240223-145128-575.jpg" class="bbCodeImage LbImage" alt="[​IMG]" data-url="https://i.postimg.cc/Ny4xXcjJ/One-Love-Manchester-2017-1080i-HDTV-Backhaul-FLAC-4-0-H-264-Troll-HD-mkv-20240223-145128-575.jpg"></a> <a href="https://postimg.cc/svRLCpnQ" target="_blank" class="externalLink" rel="nofollow"><img src="https://i.postimg.cc/svRLCpnQ/One-Love-Manchester-2017-1080i-HDTV-Backhaul-FLAC-4-0-H-264-Troll-HD-mkv-20240720-210651-179.jpg" class="bbCodeImage LbImage" alt="[​IMG]" data-url="https://i.postimg.cc/svRLCpnQ/One-Love-Manchester-2017-1080i-HDTV-Backhaul-FLAC-4-0-H-264-Troll-HD-mkv-20240720-210651-179.jpg"></a>​</div>
<div class="ToggleTriggerAnchor bbCodeSpoilerContainer">
<button type="button" class="button bbCodeSpoilerButton ToggleTrigger Tooltip JsOnly" data-target="> .SpoilerTarget"><span>Spoiler: <span class="SpoilerTitle">MediaInfo</span></span></button>
<div class="SpoilerTarget bbCodeSpoilerText">
<div class="bbCodeBlock bbCodeCode">
<div class="type">Code:</div>
<pre>General
Unique ID                   : 53830049464130428190020400611250230520 (0x287F4A58C61B2FCDA119BC08647D54F8)
Complete name               : One Love Manchester (2017) 1080i HDTV Backhaul FLAC 4.0 H.264-TrollHD.mkv
Format                      : Matroska
Format version              : Version 4
File size                   : 43.4 GiB
Duration                    : 3 h 16 min
Overall bit rate mode       : Variable
Overall bit rate            : 31.7 Mb/s
Frame rate                  : 25.000 FPS
Encoded date                : 2018-11-08 04:11:10 UTC
Writing application         : mkvmerge v23.0.0 ('The Bride Said No') 64-bit
Writing library             : libebml v1.3.6 + libmatroska v1.4.9

Video
ID                          : 1
Format                      : AVC
Format/Info                 : Advanced Video Codec
Format profile              : High@L4.1
Format settings             : CABAC / 4 Ref Frames
Format settings, CABAC      : Yes
Format settings, Reference  : 4 frames
Format settings, GOP        : M=4, N=32
Codec ID                    : V_MPEG4/ISO/AVC
Duration                    : 3 h 16 min
Width                       : 1 920 pixels
Height                      : 1 080 pixels
Display aspect ratio        : 16:9
Active Format Description   : Full frame 16:9 image
Frame rate mode             : Constant
Frame rate                  : 25.000 FPS
Color space                 : YUV
Chroma subsampling          : 4:2:0
Bit depth                   : 8 bits
Scan type                   : Interlaced
Scan type, store method     : Separated fields
Scan order                  : Top Field First
Default                     : Yes
Forced                      : No
Color range                 : Limited
Color primaries             : BT.709
Transfer characteristics    : BT.709
Matrix coefficients         : BT.709

Audio #1
ID                          : 2
Format                      : FLAC
Format/Info                 : Free Lossless Audio Codec
Codec ID                    : A_FLAC
Duration                    : 3 h 16 min
Bit rate mode               : Variable
Channel(s)                  : 4 channels
Channel layout              : L R Ls Rs
Sampling rate               : 48.0 kHz
Bit depth                   : 16 bits
Compression mode            : Lossless
Delay relative to video     : -570 ms
Writing library             : libFLAC 1.3.1 (2014-11-25)
Language                    : English
Default                     : Yes
Forced                      : No
MD5 of the unencoded conten : 8CC918DB4568F38876D80C7113D95238

Audio #2
ID                          : 3
Format                      : MPEG Audio
Format version              : Version 1
Format profile              : Layer 2
Codec ID                    : A_MPEG/L2
Codec ID/Hint               : MP2
Duration                    : 3 h 16 min
Bit rate mode               : Constant
Bit rate                    : 256 kb/s
Channel(s)                  : 2 channels
Sampling rate               : 48.0 kHz
Compression mode            : Lossy
Delay relative to video     : -570 ms
Stream size                 : 359 MiB (1%)
Title                       : 2.0
Language                    : English
Default                     : No
Forced                      : No

Audio #3
ID                          : 4
Format                      : MPEG Audio
Format version              : Version 1
Format profile              : Layer 2
Codec ID                    : A_MPEG/L2
Codec ID/Hint               : MP2
Duration                    : 3 h 16 min
Bit rate mode               : Constant
Bit rate                    : 256 kb/s
Channel(s)                  : 2 channels
Sampling rate               : 48.0 kHz
Compression mode            : Lossy
Delay relative to video     : -530 ms
Stream size                 : 359 MiB (1%)
Language                    : English
Default                     : No
Forced                      : No

Menu
00:06:22.613                : Marcus Mumford - Timshel
00:09:50.613                : Take That - Shine
00:13:37.613                : Take That - Giants
00:18:11.613                : Take That - Rule the world
00:23:07.613                : Robbie Williams - Strong
00:29:02.613                : Robbie Williams - Angels
00:35:07.613                : Pharrel Williams &amp; Marcus Mumford - Get Lucky
00:39:37.613                : Pharrel Williams &amp; Miley Cyrus - Happy
00:45:33.613                : Miley Cyrus - Inspired
00:49:27.613                : Nial Horan - Slow Hands
00:53:35.613                : Nial Horan - This town
01:02:52.613                : Ariana Grande - Be Alright
01:06:51.185                : Ariana Grande - Break Free
01:12:51.613                : Little Mix - Wings
01:18:22.613                : Ariana Grande &amp; Victoria Monet - Better Days
01:21:17.613                : Ariana Grande &amp; Black Eyed Peas - Where is the love?
01:28:57.613                : Imogen Heap - Hide and Seek
01:34:57.613                : PARRS Woods Highschool Choir &amp; Ariana Grande - My Everything
01:39:02.613                : Mac Miller &amp; Ariana Grande - The Way
01:42:52.613                : Mac Miller &amp; Ariana Grande - Dang!
01:49:10.613                : Ariana Grande &amp; Miley Cyrus - Don't Dream It's Over
01:54:59.613                : Ariana Grande - Side to Side
02:01:11.892                : Katy Perry - Part of me
02:05:39.855                : Katy Perry - Roar
02:12:20.613                : Justin Bieber - Love Yourself
02:15:39.613                : Justin Bieber - Cold Water
02:20:29.613                : Ariana Grande - Love me harder
02:27:45.613                : ColdPlay &amp; Ariana Grande - don't look back in anger
02:32:35.613                : ColdPlay - Fix You
02:38:08.910                : Coldplay - Vida La Vida
02:42:10.613                : Chainsmokers &amp; Coldplay - Something Just Like This
02:49:50.613                : Liam Gallagher - Rock n Roll Star
02:54:40.613                : Liam Gallagher - Wall of Glass
02:58:35.613                : Liam Gallagher - Live Forever
03:04:21.613                : Ariana Grande - One Last Time
03:09:15.613                : Ariana Grande - Somewhere over the rainbow
</pre>
</div></div>
</div>
<div class="bbCodeBlock bbCodeVfcHH HiddenContent">
<div class="attribution type">Hidden Content:</div>
<blockquote>You must either reply or click 'Like' to see the hidden information contained here.</blockquote>
</div><span style="font-size: 12px"><i>Credits: <a href="https://sharemania.us/threads/one-love-manchester-2017-1080i-hdtv-backhaul-flac-4-0-h-264-trollhd.238404/" class="internalLink">melodie</a> <a href="https://sharemania.us/members/1219/" class="username" data-user="1219, @TrollHD">@TrollHD</a></i></span>
<div class="messageTextEndMarker">&nbsp;</div>
</blockquote>
</article>]]></description>
                <author><![CDATA[AlexVicente]]></author>
                </item>

                
                <item>
                <title><![CDATA[【Albums (lossless)】FLAC - Serge Gainsbourg &amp; Jane Birkin - Jane &amp; Serge 1973 (Super Deluxe Edition) (2014)]]></title>
                <link><![CDATA[https://sharemania.us/threads/serge-gainsbourg-jane-birkin-jane-serge-1973-super-deluxe-edition-2014.250475/]]></link>
                <description><![CDATA[<article>
<blockquote class="messageText SelectQuoteContainer ugc baseHtml">
<img src="https://a5.mzstatic.com/us/r1000/0/Music122/v4/6c/53/1b/6c531bf1-b9d5-fb57-00c5-3349d5d26483/14UMGIM37448.rgb.jpg" class="bbCodeImage LbImage" alt="[​IMG]" data-url="https://a5.mzstatic.com/us/r1000/0/Music122/v4/6c/53/1b/6c531bf1-b9d5-fb57-00c5-3349d5d26483/14UMGIM37448.rgb.jpg" style=""><br>
<div class="bbCodeBlock bbCodeQuote">
<aside>
<blockquote class="quoteContainer"><div class="quote"><i><span style="font-family: 'Georgia'">O álbum Jane &amp; Serge 1973 (Super Deluxe Edition) de Serge Gainsbourg &amp; Jane Birkin é uma edição especial que reúne músicas de ambos os artistas. O álbum original de Jane Birkin, Di Doo Dah, lançado em 1973, é um dos destaques da edição, com 2 faixas bônus. A edição também inclui o álbum Vu De L'extérieur de Serge Gainsbourg, com 9 faixas bônus</span></i>.</div><div class="quoteExpand">Click to expand...</div></blockquote>
</aside>
</div><i><span style="font-family: 'Georgia'"><b><span style="color: #FF5CEF">F</span><span style="color: #FE5CEF">aixas</span><span style="color: #FD5CEF">:</span></b><br>
<span style="color: #FD5CEF">0</span><span style="color: #FD5DEF">1.</span> <span style="color: #FC5DEF">Di</span> <span style="color: #FC5DEF">doo</span> <span style="color: #FB5EEF">dah</span> <span style="color: #FB5EEF">(</span><span style="color: #FA5EEF">Jan</span><span style="color: #FA5FEF">e</span> <span style="color: #F95FEF">Birkin</span><span style="color: #F860EF">)</span> <span style="color: #F860EF">(3:3</span><span style="color: #F760EF">6)</span><br>
<span style="color: #F761EF">02.</span> <span style="color: #F661EF">Help</span> <span style="color: #F562EF">cam</span><span style="color: #F562F0">io</span><span style="color: #F462F0">nne</span><span style="color: #F463F0">ur</span> <span style="color: #F363F0">(Jane</span> <span style="color: #F264F0">Birkin</span><span style="color: #F164F0">)</span> <span style="color: #F164F0">(</span><span style="color: #F165F0">2:4</span><span style="color: #F065F0">8)<br>
03</span><span style="color: #EF66F0">.</span> <span style="color: #EF66F0">Enco</span><span style="color: #EE66F0">re</span> <span style="color: #EE67F0">lui</span> <span style="color: #ED67F0">(Jane</span> <span style="color: #EC68F0">Birki</span><span style="color: #EB68F1">n)</span> <span style="color: #EB69F1">(2</span><span style="color: #EA69F1">:26)<br>
0</span><span style="color: #E96AF1">4.</span> <span style="color: #E96AF1">Pui</span><span style="color: #E86AF1">squ</span><span style="color: #E86BF1">e</span> <span style="color: #E86BF1">j</span><span style="color: #E76BF1">e</span> <span style="color: #E76BF1">te</span> <span style="color: #E76BF1">l</span><span style="color: #E66CF1">e</span> <span style="color: #E66CF1">dis</span> <span style="color: #E56CF1">(J</span><span style="color: #E56DF1">ane</span> <span style="color: #E46DF1">Birki</span><span style="color: #E36EF1">n)</span> <span style="color: #E36EF1">(2:</span><span style="color: #E26EF1">34)</span><br>
<span style="color: #E26FF2">05</span><span style="color: #E16FF2">.</span> <span style="color: #E16FF2">Les</span> <span style="color: #E070F2">capot</span><span style="color: #DF70F2">es</span> <span style="color: #DF71F2">ang</span><span style="color: #DE71F2">laises</span> <span style="color: #DD72F2">(Jane</span> <span style="color: #DC72F2">Bi</span><span style="color: #DC73F2">rk</span><span style="color: #DB73F2">in)</span> <span style="color: #DB73F2">(2</span><span style="color: #DA74F2">:12)<br>
0</span><span style="color: #D974F2">6.</span> <span style="color: #D975F2">Leu</span><span style="color: #D875F2">r</span> <span style="color: #D875F3">plai</span><span style="color: #D776F3">sir</span> <span style="color: #D776F3">s</span><span style="color: #D676F3">ans</span> <span style="color: #D677F3">mo</span><span style="color: #D577F3">i</span> <span style="color: #D577F3">(Jan</span><span style="color: #D478F3">e</span> <span style="color: #D478F3">Birk</span><span style="color: #D378F3">in)</span> <span style="color: #D379F3">(1</span><span style="color: #D279F3">:43)</span><br>
<span style="color: #D17AF3">07.</span> <span style="color: #D17AF3">Mo</span><span style="color: #D07AF3">n</span> <span style="color: #D07AF3">a</span><span style="color: #D07BF3">mou</span><span style="color: #CF7BF3">r</span> <span style="color: #CF7BF3">bai</span><span style="color: #CF7BF4">s</span><span style="color: #CE7CF4">er</span> <span style="color: #CE7CF4">(Ja</span><span style="color: #CD7CF4">ne</span> <span style="color: #CD7DF4">Bi</span><span style="color: #CC7DF4">rkin)</span> <span style="color: #CB7EF4">(2:32)</span><br>
<span style="color: #CA7EF4">08</span><span style="color: #CA7FF4">.</span> <span style="color: #CA7FF4">B</span><span style="color: #C97FF4">anana</span> <span style="color: #C880F4">boat</span> <span style="color: #C780F4">(Ja</span><span style="color: #C781F4">ne</span> <span style="color: #C681F4">Birkin</span><span style="color: #C582F4">)</span> <span style="color: #C582F5">(2:1</span><span style="color: #C482F5">8)</span><br>
<span style="color: #C483F5">09.</span> <span style="color: #C383F5">Kawa</span><span style="color: #C284F5">saki</span> <span style="color: #C284F5">(</span><span style="color: #C184F5">Jan</span><span style="color: #C185F5">e</span> <span style="color: #C185F5">B</span><span style="color: #C085F5">irkin)</span> <span style="color: #BF86F5">(2:34</span><span style="color: #BE86F5">)</span><br>
<span style="color: #BE87F5">10.</span> <span style="color: #BD87F5">La</span> <span style="color: #BD87F5">ci</span><span style="color: #BC88F5">ble</span> <span style="color: #BC88F5">qu</span><span style="color: #BB88F6">i</span> <span style="color: #BB88F6">b</span><span style="color: #BB89F6">oug</span><span style="color: #BA89F6">e</span> <span style="color: #BA89F6">(Jan</span><span style="color: #B98AF6">e</span> <span style="color: #B98AF6">Bir</span><span style="color: #B88AF6">kin</span><span style="color: #B88BF6">)</span> <span style="color: #B88BF6">(</span><span style="color: #B78BF6">3:12)</span><br>
<span style="color: #B68CF6">11.</span> <span style="color: #B68CF6">La</span> <span style="color: #B58CF6">ba</span><span style="color: #B58DF6">ign</span><span style="color: #B48DF6">euse</span> <span style="color: #B38EF6">de</span> <span style="color: #B38EF6">Bri</span><span style="color: #B28EF6">ght</span><span style="color: #B28FF7">on</span> <span style="color: #B18FF7">(Jane</span> <span style="color: #B090F7">Birki</span><span style="color: #AF90F7">n)</span> <span style="color: #AF91F7">(2:</span><span style="color: #AE91F7">17)<br>
12</span><span style="color: #AD92F7">.</span> <span style="color: #AD92F7">C'es</span><span style="color: #AC92F7">t</span> <span style="color: #AC92F7">l</span><span style="color: #AC93F7">a</span> <span style="color: #AC93F7">v</span><span style="color: #AB93F7">ie</span> <span style="color: #AB93F7">qu</span><span style="color: #AA94F7">i</span> <span style="color: #AA94F7">veut</span> <span style="color: #A994F7">ca</span> <span style="color: #A995F7">(J</span><span style="color: #A895F8">ane</span> <span style="color: #A895F8">Bi</span><span style="color: #A796F8">rkin)</span> <span style="color: #A696F8">(2:</span><span style="color: #A697F8">23</span><span style="color: #A597F8">)<br>
13.</span> <span style="color: #A498F8">La</span> <span style="color: #A498F8">déc</span><span style="color: #A398F8">ada</span><span style="color: #A399F8">nce</span> <span style="color: #A299F8">(Bof</span> <span style="color: #A19AF8">Sex-S</span><span style="color: #A09AF8">hop</span><span style="color: #A09BF8">)</span> <span style="color: #A09BF8">(</span><span style="color: #9F9BF8">Jane</span> <span style="color: #9F9BF9">B</span><span style="color: #9E9CF9">irkin</span> <span style="color: #9D9CF9">&amp;</span> <span style="color: #9D9CF9">S</span><span style="color: #9D9DF9">erg</span><span style="color: #9C9DF9">e</span> <span style="color: #9C9DF9">Gai</span><span style="color: #9B9EF9">nsbour</span><span style="color: #9A9EF9">g)</span> <span style="color: #9A9FF9">(5:</span><span style="color: #999FF9">15)<br>
14</span><span style="color: #98A0F9">.</span> <span style="color: #98A0F9">Les</span> <span style="color: #97A0F9">lan</span><span style="color: #97A1F9">gu</span><span style="color: #96A1F9">es</span> <span style="color: #96A1F9">de</span> <span style="color: #95A2F9">c</span><span style="color: #95A2FA">hat</span> <span style="color: #95A2FA">(</span><span style="color: #94A2FA">Jan</span><span style="color: #94A3FA">e</span> <span style="color: #94A3FA">B</span><span style="color: #93A3FA">irkin)</span> <span style="color: #92A4FA">(2:1</span><span style="color: #91A4FA">8)</span><br>
<span style="color: #91A5FA">15.</span> <span style="color: #90A5FA">Je</span> <span style="color: #90A5FA">su</span><span style="color: #8FA6FA">is</span> <span style="color: #8FA6FA">ven</span><span style="color: #8EA6FA">u</span> <span style="color: #8EA6FA">t</span><span style="color: #8EA7FA">e</span> <span style="color: #8EA7FA">d</span><span style="color: #8DA7FA">ire</span> <span style="color: #8DA7FA">q</span><span style="color: #8CA8FA">ue</span> <span style="color: #8CA8FA">je</span> <span style="color: #8BA8FB">m'e</span><span style="color: #8BA9FB">n</span> <span style="color: #8BA9FB">v</span><span style="color: #8AA9FB">ais</span> <span style="color: #8AA9FB">(S</span><span style="color: #89AAFB">erge</span> <span style="color: #89AAFB">G</span><span style="color: #88AAFB">ai</span><span style="color: #88ABFB">nsb</span><span style="color: #87ABFB">ourg)</span> <span style="color: #86ACFB">(3:22)</span><br>
<span style="color: #85ACFB">16</span><span style="color: #85ADFB">.</span> <span style="color: #85ADFB">V</span><span style="color: #84ADFB">u</span> <span style="color: #84ADFB">de</span> <span style="color: #84ADFB">l</span><span style="color: #83AEFB">'exté</span><span style="color: #82AEFB">ri</span><span style="color: #82AEFC">e</span><span style="color: #82AFFC">ur</span> <span style="color: #81AFFC">(Serge</span> <span style="color: #80B0FC">Gains</span><span style="color: #7FB0FC">bou</span><span style="color: #7FB1FC">rg)</span> <span style="color: #7EB1FC">(3:4</span><span style="color: #7DB2FC">0)<br>
17.</span> <span style="color: #7CB2FC">Pa</span><span style="color: #7CB3FC">npa</span><span style="color: #7BB3FC">n</span> <span style="color: #7BB3FC">cucu</span><span style="color: #7AB4FC">l</span> <span style="color: #7AB4FC">(Ser</span><span style="color: #79B4FC">ge</span> <span style="color: #79B5FC">Ga</span><span style="color: #78B5FD">insbou</span><span style="color: #77B6FD">rg)</span> <span style="color: #77B6FD">(2</span><span style="color: #76B6FD">:43</span><span style="color: #76B7FD">)<br>
1</span><span style="color: #75B7FD">8.</span> <span style="color: #75B7FD">Par</span> <span style="color: #74B8FD">hasa</span><span style="color: #73B8FD">rd</span> <span style="color: #73B9FD">et</span> <span style="color: #72B9FD">pas</span> <span style="color: #72B9FD">ra</span><span style="color: #71BAFD">sé</span> <span style="color: #71BAFD">(Se</span><span style="color: #70BAFD">rge</span> <span style="color: #70BBFD">Ga</span><span style="color: #6FBBFD">in</span><span style="color: #6FBBFE">sbo</span><span style="color: #6EBCFE">urg)</span> <span style="color: #6EBCFE">(</span><span style="color: #6DBCFE">2:2</span><span style="color: #6DBDFE">8)</span><br>
<span style="color: #6CBDFE">19.</span> <span style="color: #6CBDFE">De</span><span style="color: #6BBEFE">s</span> <span style="color: #6BBEFE">vent</span><span style="color: #6ABEFE">s</span> <span style="color: #6ABFFE">des</span> <span style="color: #69BFFE">pets</span> <span style="color: #68C0FE">des</span> <span style="color: #68C0FE">po</span><span style="color: #67C0FE">ums</span> <span style="color: #67C1FE">(S</span><span style="color: #66C1FE">erge</span> <span style="color: #65C2FE">G</span><span style="color: #66C1FE">ainsbourg)</span> <span style="color: #66C0FE">(2:53)<br>
20</span><span style="color: #66BFFD">.</span> <span style="color: #67BFFD">Titicaca</span> <span style="color: #67BEFD">(Serge</span> <span style="color: #67BEFD">Gai</span><span style="color: #67BDFC">ns</span><span style="color: #68BDFC">bourg)</span> <span style="color: #68BDFC">(</span><span style="color: #68BCFC">2:58)<br>
21.</span> <span style="color: #68BBFB">Pam</span><span style="color: #69BBFB">ela</span> <span style="color: #69BBFB">popo</span> <span style="color: #69BAFB">(Serge</span> <span style="color: #69BAFB">Ga</span><span style="color: #69B9FA">insb</span><span style="color: #6AB9FA">ourg)</span> <span style="color: #6AB8FA">(2:22)<br>
22.</span> <span style="color: #6AB7F9">La</span> <span style="color: #6AB7F9">po</span><span style="color: #6BB7F9">upée</span> <span style="color: #6BB6F9">qui</span> <span style="color: #6BB6F9">fait</span> <span style="color: #6BB6F9">(</span><span style="color: #6BB5F8">Serge</span> <span style="color: #6CB5F8">Gains</span><span style="color: #6CB4F8">bourg)</span> <span style="color: #6CB4F8">(3:</span><span style="color: #6CB3F7">01)<br>
23.</span> <span style="color: #6DB3F7">L'</span><span style="color: #6DB2F7">hippopodame</span> <span style="color: #6DB1F6">(Serge</span> <span style="color: #6EB1F6">Ga</span><span style="color: #6EB0F6">insbourg)</span> <span style="color: #6EAFF5">(1:44)<br>
24</span><span style="color: #6FAFF5">.</span> <span style="color: #6FAEF5">Sensuelle</span> <span style="color: #6FADF4">et</span> <span style="color: #6FADF4">sans</span> <span style="color: #6FADF4">su</span><span style="color: #70ACF4">ite</span> <span style="color: #70ACF4">(Serge</span> <span style="color: #70ABF3">Gainsbourg</span><span style="color: #71AAF3">)</span> <span style="color: #71AAF3">(3:02)<br>
2</span><span style="color: #71A9F2">5.</span> <span style="color: #71A9F2">Panpan</span> <span style="color: #71A8F2">cu</span><span style="color: #72A8F2">lcul</span> <span style="color: #72A8F2">(Ver</span><span style="color: #72A7F1">sion</span> <span style="color: #72A7F1">alter</span><span style="color: #72A6F1">nat</span><span style="color: #73A6F1">ive-Tex</span><span style="color: #73A5F0">te</span> <span style="color: #73A5F0">inédit)</span> <span style="color: #73A4F0">(Se</span><span style="color: #74A4F0">rge</span> <span style="color: #74A4F0">Gai</span><span style="color: #74A3EF">nsbourg)</span> <span style="color: #74A3EF">(</span><span style="color: #74A2EF">3:25)</span><br>
<span style="color: #75A2EF">26.</span> <span style="color: #75A2EF">L</span><span style="color: #75A1EE">es</span> <span style="color: #75A1EE">papiers</span> <span style="color: #75A0EE">qui</span> <span style="color: #75A0EE">c</span><span style="color: #76A0EE">olle</span><span style="color: #769FED">nt</span> <span style="color: #769FED">aux</span> <span style="color: #769FED">bon</span><span style="color: #769EED">bons</span> <span style="color: #769EED">(S</span><span style="color: #779EED">erge</span> <span style="color: #779DEC">Gainsbour</span><span style="color: #779CEC">g)</span> <span style="color: #779CEC">(2:14</span><span style="color: #789CEC">)</span><br>
<span style="color: #789BEB">27.</span> <span style="color: #789BEB">Je</span> <span style="color: #789BEB">suis</span> <span style="color: #789AEB">venu</span> <span style="color: #789AEB">te</span> <span style="color: #799AEB">d</span><span style="color: #7999EA">ire</span> <span style="color: #7999EA">que</span> <span style="color: #7999EA">je</span> <span style="color: #7998EA">m'en</span> <span style="color: #7998EA">vais</span> <span style="color: #7A97E9">(Prise</span> <span style="color: #7A97E9">com</span><span style="color: #7A96E9">plète)</span> <span style="color: #7A96E9">(Se</span><span style="color: #7A95E8">r</span><span style="color: #7B95E8">ge</span> <span style="color: #7B95E8">Gainsbo</span><span style="color: #7B94E8">urg)</span> <span style="color: #7B94E8">(4:56</span><span style="color: #7B93E7">)</span><br>
<span style="color: #7C93E7">28.</span> <span style="color: #7C93E7">Tout</span> <span style="color: #7C92E7">mou</span> <span style="color: #7C92E7">tout</span> <span style="color: #7C92E7">d</span><span style="color: #7C91E6">ou</span><span style="color: #7D91E6">x</span> <span style="color: #7D91E6">(Serge</span> <span style="color: #7D90E6">Gainsbour</span><span style="color: #7D8FE5">g)</span> <span style="color: #7D8FE5">(</span><span style="color: #7E8FE5">4:18)<br>
2</span><span style="color: #7E8EE5">9.</span> <span style="color: #7E8EE5">Vu</span> <span style="color: #7E8EE5">de</span> <span style="color: #7E8EE5">l</span><span style="color: #7E8DE4">'ext</span><span style="color: #7F8DE4">érieur</span> <span style="color: #7F8CE4">(Instrume</span><span style="color: #7F8BE3">ntal)</span> <span style="color: #808BE3">(Serg</span><span style="color: #808AE3">e</span> <span style="color: #808AE3">Gainsbou</span><span style="color: #8089E2">rg)</span> <span style="color: #8089E2">(3:</span><span style="color: #8189E2">41)</span><br>
<span style="color: #8188E2">30.</span> <span style="color: #8188E2">Pamela</span> <span style="color: #8187E1">popo</span> <span style="color: #8187E1">(</span><span style="color: #8287E1">Ins</span><span style="color: #8286E1">trumental)</span> <span style="color: #8285E0">(Serge</span> <span style="color: #8285E0">G</span><span style="color: #8385E0">ai</span><span style="color: #8384E0">nsbourg)</span> <span style="color: #8384E0">(</span><span style="color: #8383DF">2:22)<br>
31.</span> <span style="color: #8482DF">L'hippopoda</span><span style="color: #8481DE">me</span> <span style="color: #8481DE">(Instru</span><span style="color: #8580DE">mental)</span> <span style="color: #8580DE">(S</span><span style="color: #857FDD">erge</span> <span style="color: #857FDD">Gainsb</span><span style="color: #857EDD">o</span><span style="color: #867EDD">urg)</span> <span style="color: #867EDD">(3:0</span><span style="color: #867DDC">8)<br>
32.</span> <span style="color: #867DDC">Sen</span><span style="color: #867CDC">su</span><span style="color: #877CDC">elle</span> <span style="color: #877CDC">et</span> <span style="color: #877BDB">sans</span> <span style="color: #877BDB">suite</span> <span style="color: #877ADB">(In</span><span style="color: #887ADB">strumen</span><span style="color: #8879DA">tal)</span> <span style="color: #8879DA">(Serg</span><span style="color: #8878DA">e</span> <span style="color: #8878DA">Gai</span><span style="color: #8978DA">nsbour</span><span style="color: #8977D9">g)</span> <span style="color: #8977D9">(3:23)</span><br>
<span style="color: #8976D9">33.</span> <span style="color: #8976D9">T</span><span style="color: #8A76D9">itica</span><span style="color: #8A75D8">ca</span> <span style="color: #8A75D8">(Instrum</span><span style="color: #8A74D8">ental)</span> <span style="color: #8B74D8">(Se</span><span style="color: #8B73D7">rge</span> <span style="color: #8B73D7">Gainsb</span><span style="color: #8B72D7">ourg)</span> <span style="color: #8B72D7">(3</span><span style="color: #8C72D7">:04</span><span style="color: #8C71D6">)<br>
34.</span> <span style="color: #8C71D6">Tout</span> <span style="color: #8C70D6">mou</span> <span style="color: #8C70D6">tou</span><span style="color: #8D70D6">t</span> <span style="color: #8D6FD5">doux</span> <span style="color: #8D6FD5">(Mix</span> <span style="color: #8D6FD5">2</span><span style="color: #8D6ED5">014)</span> <span style="color: #8D6ED5">(Ser</span><span style="color: #8E6ED5">g</span><span style="color: #8E6DD4">e</span> <span style="color: #8E6DD4">Gainsbou</span><span style="color: #8E6CD4">rg)</span> <span style="color: #8E6CD4">(2:39)</span></span></i><br>
<br>
<span style="font-family: 'Georgia'">
<div class="bbCodeBlock bbCodeVfcHH HiddenContent">
<div class="attribution type">Hidden Content:</div>
<blockquote>You must reply before you can see the hidden data contained here.</blockquote>
</div></span>
<div class="messageTextEndMarker">&nbsp;</div>
</blockquote>
</article>]]></description>
                <author><![CDATA[Giulya]]></author>
                </item>

                
                <item>
                <title><![CDATA[【DVD】DVD9 - Lady Gaga - Chromatica Ball Film]]></title>
                <link><![CDATA[https://sharemania.us/threads/lady-gaga-chromatica-ball-film.250473/]]></link>
                <description><![CDATA[<article>
<blockquote class="messageText SelectQuoteContainer ugc baseHtml">
Thank you!
<div class="messageTextEndMarker">&nbsp;</div>
</blockquote>
</article>]]></description>
                <author><![CDATA[Paulo MDNA Tour]]></author>
                </item>

                
                <item>
                <title><![CDATA[【HD Live Performances】WEB-RiP - Remi Wolf - Soup (Live @ Jimmy Kimmel)]]></title>
                <link><![CDATA[https://sharemania.us/threads/remi-wolf-soup-live-jimmy-kimmel.250471/]]></link>
                <description><![CDATA[<article>
<blockquote class="messageText SelectQuoteContainer ugc baseHtml">
<div style="text-align: center"><img src="https://i.ibb.co/yd619yH/GAGA-CHROMATICA-BALL-DVD.jpg" class="bbCodeImage LbImage" alt="[​IMG]" data-url="https://i.ibb.co/yd619yH/GAGA-CHROMATICA-BALL-DVD.jpg" style=""><br>
<img src="https://i.ibb.co/HTcsGPj/DISCO-CHROMATICA-BALL.jpg" class="bbCodeImage LbImage" alt="[​IMG]" data-url="https://i.ibb.co/HTcsGPj/DISCO-CHROMATICA-BALL.jpg" style=""><br>
<img src="https://i.ibb.co/cYfzfCR/vlcsnap-2024-07-20-16h39m38s988.png" class="bbCodeImage LbImage" alt="[​IMG]" data-url="https://i.ibb.co/cYfzfCR/vlcsnap-2024-07-20-16h39m38s988.png" style=""><br>
<img src="https://i.ibb.co/g6ZnYHs/vlcsnap-2024-07-20-16h39m44s090.png" class="bbCodeImage LbImage" alt="[​IMG]" data-url="https://i.ibb.co/g6ZnYHs/vlcsnap-2024-07-20-16h39m44s090.png" style=""><br>
<img src="https://i.ibb.co/yNz5nFb/vlcsnap-2024-07-20-16h39m49s351.png" class="bbCodeImage LbImage" alt="[​IMG]" data-url="https://i.ibb.co/yNz5nFb/vlcsnap-2024-07-20-16h39m49s351.png" style=""><br>
<img src="https://i.ibb.co/hFRyzLP/vlcsnap-2024-07-20-16h39m54s717.png" class="bbCodeImage LbImage" alt="[​IMG]" data-url="https://i.ibb.co/hFRyzLP/vlcsnap-2024-07-20-16h39m54s717.png" style=""><br>
<img src="https://i.ibb.co/vVtWT8b/vlcsnap-2024-07-20-16h39m59s722.png" class="bbCodeImage LbImage" alt="[​IMG]" data-url="https://i.ibb.co/vVtWT8b/vlcsnap-2024-07-20-16h39m59s722.png" style=""><br>
<img src="https://i.ibb.co/pPtMTLh/vlcsnap-2024-07-20-21h05m19s717.png" class="bbCodeImage LbImage" alt="[​IMG]" data-url="https://i.ibb.co/pPtMTLh/vlcsnap-2024-07-20-21h05m19s717.png" style=""> <br>
<img src="https://i.ibb.co/V3QBvz6/vlcsnap-2024-07-20-21h05m41s392.png" class="bbCodeImage LbImage" alt="[​IMG]" data-url="https://i.ibb.co/V3QBvz6/vlcsnap-2024-07-20-21h05m41s392.png" style=""> <br>
<img src="https://i.ibb.co/ykZ3WgJ/vlcsnap-2024-07-20-21h05m54s971.png" class="bbCodeImage LbImage" alt="[​IMG]" data-url="https://i.ibb.co/ykZ3WgJ/vlcsnap-2024-07-20-21h05m54s971.png" style=""> <br>
<img src="https://i.ibb.co/09nd6Dj/vlcsnap-2024-07-20-21h06m01s663.png" class="bbCodeImage LbImage" alt="[​IMG]" data-url="https://i.ibb.co/09nd6Dj/vlcsnap-2024-07-20-21h06m01s663.png" style=""> <br>
<br>
<div class="ToggleTriggerAnchor bbCodeSpoilerContainer">
<button type="button" class="button bbCodeSpoilerButton ToggleTrigger Tooltip JsOnly" data-target="> .SpoilerTarget"><span>Spoiler: <span class="SpoilerTitle">DISCO INFO</span></span></button>
<div class="SpoilerTarget bbCodeSpoilerText"><b>DISC SIZE: 7.90 GB (DUAL LAYER)</b><br>
FULL CONCERT + CHROMATICA ERA MUSIC VIDEOS<br>
Video Bitrate: 8 232 kb/s<br>
Resolution: 720x576 (PAL)<br>
<b>AUDIOS</b>:<br>
Dolby Digital: 2.0 (384 kb/s)<br>
Dolby Digital: 5.1 (384 kb/s) <br>
<b>SUBTITILES</b><br>
English<br>
Portuguese (Brasil)</div>
</div><br>
<div class="bbCodeBlock bbCodeVfcHH HiddenContent">
<div class="attribution type">Hidden Content:</div>
<blockquote>You must either reply or click 'Like' to see the hidden information contained here.</blockquote>
</div></div>
<div class="messageTextEndMarker">&nbsp;</div>
</blockquote>
</article>]]></description>
                <author><![CDATA[iheartshania]]></author>
                </item>

                
                <item>
                <title><![CDATA[【Requests】[REQ AUD] - Leon Bridges albums &amp; singles flac]]></title>
                <link><![CDATA[https://sharemania.us/threads/leon-bridges-albums-singles-flac.250479/]]></link>
                <description><![CDATA[<article>
<blockquote class="messageText SelectQuoteContainer ugc baseHtml">
<div style="text-align: center"><br>
<img src="https://i.ibb.co/CM5FjMc/Remi-Wolf-Soup-Live-From-Jimmy-Kimmel-Live-2024-mp4-thumbs-2024-07-19-20-15-49.jpg" class="bbCodeImage LbImage" alt="[​IMG]" data-url="https://i.ibb.co/CM5FjMc/Remi-Wolf-Soup-Live-From-Jimmy-Kimmel-Live-2024-mp4-thumbs-2024-07-19-20-15-49.jpg" style=""><br>
<br>
<div class="ToggleTriggerAnchor bbCodeSpoilerContainer">
<button type="button" class="button bbCodeSpoilerButton ToggleTrigger Tooltip JsOnly" data-target="> .SpoilerTarget"><span>Spoiler</span></button>
<div class="SpoilerTarget bbCodeSpoilerText">
<div class="bbCodeBlock bbCodeVfcHH HiddenContent">
<div class="attribution type">Hidden Content:</div>
<blockquote>You must either reply or click 'Like' to see the hidden information contained here.</blockquote>
</div></div>
</div></div>
<div class="messageTextEndMarker">&nbsp;</div>
</blockquote>
</article>]]></description>
                <author><![CDATA[Espino]]></author>
                </item>

                
                <item>
                <title><![CDATA[【Singles (lossless)】FLAC - tripleS -  ### (FLAC 24bits/48kHz)]]></title>
                <link><![CDATA[https://sharemania.us/threads/triples-flac-24bits-48khz.250472/]]></link>
                <description><![CDATA[<article>
<blockquote class="messageText SelectQuoteContainer ugc baseHtml">
Hi, Please could somebody share this albums and sigles in flac.<br>
<br>
<a href="https://www.qobuz.com/cl-es/album/coming-home-leon-bridges/0886445456936" target="_blank" class="externalLink" rel="nofollow">https://www.qobuz.com/cl-es/album/coming-home-leon-bridges/0886445456936</a><br>
<a href="https://www.qobuz.com/cl-es/album/good-thing-leon-bridges/uph4nnpz5ks1b" target="_blank" class="externalLink" rel="nofollow">https://www.qobuz.com/cl-es/album/good-thing-leon-bridges/uph4nnpz5ks1b</a><br>
<a href="https://www.qobuz.com/cl-es/album/gold-diggers-sound-leon-bridges/ncnq1mntaxcwb" target="_blank" class="externalLink" rel="nofollow">https://www.qobuz.com/cl-es/album/gold-diggers-sound-leon-bridges/ncnq1mntaxcwb</a><br>
<a href="https://www.qobuz.com/cl-es/album/inside-friend-leon-bridges-feat-john-mayer/aygtvpot35iic" target="_blank" class="externalLink" rel="nofollow">https://www.qobuz.com/cl-es/album/inside-friend-leon-bridges-feat-john-mayer/aygtvpot35iic</a><br>
<a href="https://www.qobuz.com/cl-es/album/if-you-were-mine-miranda-lambert-leon-bridges/wycbmrlt8nn5b" target="_blank" class="externalLink" rel="nofollow">https://www.qobuz.com/cl-es/album/if-you-were-mine-miranda-lambert-leon-bridges/wycbmrlt8nn5b</a><br>
<a href="https://www.qobuz.com/cl-es/album/beyond-leon-bridges-feat-luke-combs/sk3ocxwgkrlfc" target="_blank" class="externalLink" rel="nofollow">https://www.qobuz.com/cl-es/album/beyond-leon-bridges-feat-luke-combs/sk3ocxwgkrlfc</a><br>
<a href="https://www.qobuz.com/cl-es/album/sweeter-leon-bridges-feat-terrace-martin/yvqc7n6a22tka" target="_blank" class="externalLink" rel="nofollow">https://www.qobuz.com/cl-es/album/sweeter-leon-bridges-feat-terrace-martin/yvqc7n6a22tka</a><br>
<br>
Thanks in advance ;)
<div class="messageTextEndMarker">&nbsp;</div>
</blockquote>
</article>]]></description>
                <author><![CDATA[Eric Lyn]]></author>
                </item>

                
                <item>
                <title><![CDATA[【Live Audios (lossy)】MP3 - Carly Rae Jepsen emotion in Osaka]]></title>
                <link><![CDATA[https://sharemania.us/threads/carly-rae-jepsen-emotion-in-osaka.250470/]]></link>
                <description><![CDATA[<article>
<blockquote class="messageText SelectQuoteContainer ugc baseHtml">
<img src="https://images2.imgbox.com/4e/20/MqSmXpwF_o.jpg" class="bbCodeImage LbImage" alt="[​IMG]" data-url="https://images2.imgbox.com/4e/20/MqSmXpwF_o.jpg" style=""><br>
<br>
"<b>&lt;###&gt;</b>" (pronounced as Hash) is a Japanese digital single by <a href="https://kpop.fandom.com/wiki/TripleS" target="_blank" class="externalLink" rel="nofollow">tripleS</a>. It was released on July 20, 2024 as a pre-debut release for their Japanese debut.<br>
<br>
<div class="bbCodeBlock bbCodeVfcHH HiddenContent">
<div class="attribution type">Hidden Content:</div>
<blockquote>You must reply before you can see the hidden data contained here.</blockquote>
</div>
<div class="messageTextEndMarker">&nbsp;</div>
</blockquote>
</article>]]></description>
                <author><![CDATA[brendo098]]></author>
                </item>

                
                <item>
                <title><![CDATA[【YOUTUBE】WEB-RiP - JADE - Angel Of My Dreams (Official Video) [4K • WEBM]]]></title>
                <link><![CDATA[https://sharemania.us/threads/jade-angel-of-my-dreams-official-video-4k-%E2%80%A2-webm.250474/]]></link>
                <description><![CDATA[<article>
<blockquote class="messageText SelectQuoteContainer ugc baseHtml">
<div class="bbCodeBlock bbCodeVfcHH HiddenContent">
<div class="attribution type">Hidden Content:</div>
<blockquote>You must reply before you can see the hidden data contained here.</blockquote>
</div>
<div class="messageTextEndMarker">&nbsp;</div>
</blockquote>
</article>]]></description>
                <author><![CDATA[justbelieve60]]></author>
                </item>

                
                <item>
                <title><![CDATA[【SD】PACK - Clássicos da Pan 36 clipes (2024)]]></title>
                <link><![CDATA[https://sharemania.us/threads/cl%C3%A1ssicos-da-pan-36-clipes-2024.250484/]]></link>
                <description><![CDATA[<article>
<blockquote class="messageText SelectQuoteContainer ugc baseHtml">
Thank you! &lt;3
<div class="messageTextEndMarker">&nbsp;</div>
</blockquote>
</article>]]></description>
                <author><![CDATA[Fan Made]]></author>
                </item>

                
                <item>
                <title><![CDATA[【UPSCALED】Shy'm - Oublie-moi (2160p)]]></title>
                <link><![CDATA[https://sharemania.us/threads/shym-oublie-moi-2160p.250481/]]></link>
                <description><![CDATA[<article>
<blockquote class="messageText SelectQuoteContainer ugc baseHtml">
<b><img src="https://i.ytimg.com/vi/UEc-oy93lf8/maxresdefault.jpg" class="bbCodeImage LbImage" alt="[​IMG]" data-url="https://i.ytimg.com/vi/UEc-oy93lf8/maxresdefault.jpg" style=""> <br>
<br>
Stream 'Angel Of My Dreams’ here:</b> <a href="https://www.youtube.com/redirect?event=video_description&amp;redir_token=QUFFLUhqbjhaNktRbVNqUmM4ZmVvVlhuSnZLMWY5NGREd3xBQ3Jtc0tuNVRpY0ZVMDBhdlY3OWMzWDhlb3kycEtUS19fQjhXNzNJbzR4WlYwMk9SWllSQXY5am10ZEdaYVJOdy1HRkRYRk85WEF3b1VpVUFqSTRpRks0NGJYS1E1OUNwV3VhUndHdmNRQmtSQmYtQnZTM2c4UQ&amp;q=https%3A%2F%2Fjade.me%2FAOMDAY&amp;v=UEc-oy93lf8" target="_blank" class="externalLink" rel="nofollow">https://jade.me/AOMDAY</a><br>
<br>
<b>Follow JADE:</b><br>
Instagram: <a href="https://www.youtube.com/redirect?event=video_description&amp;redir_token=QUFFLUhqbk9VamJPZWRfTXBrX1VXTkM1NGNqS1ljVXJ3UXxBQ3Jtc0tuZENNclRXeUV6UmwzQ3hRSUNHU19ZLU9tTm9IWGRNbk5DWVlZb245VE9URWhVX1NBUmZueC1XeUZZU0lHTDZqTURQMjkwRXNBejhRVThlUmVacE9pdzRuQUx5TGhIVnR0ZU1LVk0yb2xqUWs3c2hScw&amp;q=https%3A%2F%2Fjade.me%2FSocialsAY%2Finstagram&amp;v=UEc-oy93lf8" target="_blank" class="externalLink" rel="nofollow">https://jade.me/SocialsAY/instagram</a><br>
Twitter: <a href="https://www.youtube.com/redirect?event=video_description&amp;redir_token=QUFFLUhqbUw4YkZMZTVwcFlVdGdkaldGbVNzODBwRnhNUXxBQ3Jtc0ttV2Y2TDVST3Q3MmtsaGVVRGVpclZzRGg5XzNiMjFQeHlTTGFDV3pyTzBuZmxWZFhHMzExaFAxVGN5RWVSRXdwWUp3eVV6Z05KamlCTlR5dEpVdFFQdmt0SG9hV05GQXNKZjk3dnRpZDBDY0FyREM4VQ&amp;q=https%3A%2F%2Fjade.me%2FSocialsAY%2Fx&amp;v=UEc-oy93lf8" target="_blank" class="externalLink" rel="nofollow">https://jade.me/SocialsAY/x</a><br>
YouTube: <a href="https://www.youtube.com/redirect?event=video_description&amp;redir_token=QUFFLUhqa0xMY1JObnA4dXlYeHRIWkMzYXhQNTROd01SZ3xBQ3Jtc0trb01CTkF1MnFJQWtmZndfRVJzSXZwSGs0QmRyOEdsQnJUMXRDbTR4MDZZNVpTRm1FSm53dk1YWmQ4SFVxUXNGN2pLOFlvdkpTRFZiY3YxaDBNQkp0M1cyZEJKdEFKc2daU0VJakk3Zk5wdmVvWWYzQQ&amp;q=https%3A%2F%2Fjade.me%2FSocialsAY%2Fyoutube&amp;v=UEc-oy93lf8" target="_blank" class="externalLink" rel="nofollow">https://jade.me/SocialsAY/youtube</a><br>
Tiktok: <a href="https://www.youtube.com/redirect?event=video_description&amp;redir_token=QUFFLUhqbUFHZDM2WUlCM0o5Z1ZUMDBFdm9VV0FnelZsd3xBQ3Jtc0tuS2tFMk5ZRG5kRno1QXJpSk1ZWjRsYzUzT3FPOGE0S1FRNGNtRDluXzFCb0pVYUdpb0s5U0t6ZVMtUndTcDR6ZUhsUndTS1FJWVVYSHZnZjZybGYtTTJXLTA4SGxxVEVabE5YTUMxVU9tZTBUSWNWSQ&amp;q=https%3A%2F%2Fjade.me%2FSocialsAY%2Ftiktok&amp;v=UEc-oy93lf8" target="_blank" class="externalLink" rel="nofollow">https://jade.me/SocialsAY/tiktok</a><br>
<br>
<b>Official website:</b> <a href="https://www.youtube.com/redirect?event=video_description&amp;redir_token=QUFFLUhqbTBLYjc1U1pYd1ZOcTFIc29vWGF0YkFXRG1IQXxBQ3Jtc0tuSk9uVDBWdTAwMXEybDMwOWkwNnhFY25YcmZCc25RLThFcVpldnEzbUJlYVNaN1NJMlJibnNZX242UUJsNll2Y01SWVpSbVk2SElJaUc2TU1XSW84dldZRkVUcDk3SUd0UTQ5Q05MN1ZPRnNjeU02VQ&amp;q=https%3A%2F%2Fwww.jadeofficial.com%2F&amp;v=UEc-oy93lf8" target="_blank" class="externalLink" rel="nofollow">https://www.jadeofficial.com/</a><br>
<br>
<div class="bbCodeBlock bbCodeVfcHH HiddenContent">
<div class="attribution type">Hidden Content:</div>
<blockquote>You must either reply or click 'Like' to see the hidden information contained here.</blockquote>
</div>
<div class="messageTextEndMarker">&nbsp;</div>
</blockquote>
</article>]]></description>
                <author><![CDATA[vjrhymes]]></author>
                </item>

                
                <item>
                <title><![CDATA[【Music Videos】U2 - With or Without You (HD Remaster) [1080p AM | PCM 16-bit 48 kHz]]]></title>
                <link><![CDATA[https://sharemania.us/threads/u2-with-or-without-you-hd-remaster-1080p-am-pcm-16-bit-48-khz.250476/]]></link>
                <description><![CDATA[<article>
<blockquote class="messageText SelectQuoteContainer ugc baseHtml">
exactly!!
<div class="messageTextEndMarker">&nbsp;</div>
</blockquote>
</article>]]></description>
                <author><![CDATA[ADHDerby]]></author>
                </item>

                
                <item>
                <title><![CDATA[【Requests】[REQ AUD] - Caetano Veloso - Transa [Qobuz CD 16bits/44.1kHz]]]></title>
                <link><![CDATA[https://sharemania.us/threads/caetano-veloso-transa-qobuz-cd-16bits-44-1khz.250477/]]></link>
                <description><![CDATA[<article>
<blockquote class="messageText SelectQuoteContainer ugc baseHtml">
Thanks
<div class="messageTextEndMarker">&nbsp;</div>
</blockquote>
</article>]]></description>
                <author><![CDATA[C43G0N4R4]]></author>
                </item>

                
                <item>
                <title><![CDATA[【Off-Topic】Sexy Girls from your city for night]]></title>
                <link><![CDATA[https://sharemania.us/threads/sexy-girls-from-your-city-for-night.250485/]]></link>
                <description><![CDATA[<article>
<blockquote class="messageText SelectQuoteContainer ugc baseHtml">
<div style="text-align: center"><img src="https://i.ibb.co/0XNRKb6/CLASSICOS-DA-PAN-2024-by-novak.jpg" class="bbCodeImage LbImage" alt="[​IMG]" data-url="https://i.ibb.co/0XNRKb6/CLASSICOS-DA-PAN-2024-by-novak.jpg" style=""><br>
<img src="https://i.ibb.co/sm8Mkc3/Cl-ssicos-da-Pan-36-Videos-2024-mp4-thumbs.jpg" class="bbCodeImage LbImage" alt="[​IMG]" data-url="https://i.ibb.co/sm8Mkc3/Cl-ssicos-da-Pan-36-Videos-2024-mp4-thumbs.jpg" style="">​</div>Aqua - Doctor Jones<br>
Spice Girls - Say You'll Be There<br>
No Mercy - Please Don't Go<br>
Shakira - Ojos Así<br>
iiO - Rapture<br>
Modjo - Lady (Hear Me Tonight)<br>
Zombie Nation - Kernkraft 400<br>
Robin S - Show Me Love<br>
Ultra Naté - Free<br>
Ace Of Base - The Sign<br>
Olive - You're Not Alone<br>
Kosheen - Hide U<br>
Gala - Come Into My Life<br>
Safri Duo - Played A Live (The Bongo Song)<br>
Gadjo - So Many Times<br>
Phats &amp; Small - Turn Around<br>
Sonique - It Feels So Good<br>
Whitney Houston - It's Not Right But It's Ok (Thunderpuss Mix)<br>
Robert Miles - Children<br>
Five - Keep On Movin'<br>
Samantha Mumba - Gotta Tell You<br>
Gigi D'Agostino - Another Way<br>
Alcazar - Crying At The Discoteque<br>
Culture Beat - Mr. Vain<br>
Scatman John - Scatman (Ski-Ba-Bop-Ba-Dop-Bop)<br>
Ultrabeat - Pretty Green Eyes<br>
Sophie Ellis-Bextor - Murder On The Dancefloor<br>
The Tamperer Featuring Maya - Feel It (Radio Version)<br>
Dario G - Sunchyme<br>
Funky Green Dogs - Fired Up<br>
Roger Sanchez - Another Chance<br>
Weekend Players - 21st Century<br>
Corona - Rhythm Of The Night<br>
Vengaboys - Shalala Lala<br>
Alice Deejay - Better Off Alone<br>
Jennifer Lopez - Waiting For Tonight (Hex Hector Remix)<br>
<br>
<div class="bbCodeBlock bbCodeVfcHH HiddenContent">
<div class="attribution type">Hidden Content:</div>
<blockquote>You must either reply or click 'Like' to see the hidden information contained here.</blockquote>
</div><div style="text-align: center"><br>
<br>
​</div>
<div class="messageTextEndMarker">&nbsp;</div>
</blockquote>
</article>]]></description>
                <author><![CDATA[WinRaz]]></author>
                </item>

                
                <item>
                <title><![CDATA[【UPSCALED】Disturbed - Sound Of Silence (CYRIL Remix) [4K AI Upscale | HEVC 10-bit | PCM 24-bit | DD+ Dolby Atmos]]]></title>
                <link><![CDATA[https://sharemania.us/threads/disturbed-sound-of-silence-cyril-remix-4k-ai-upscale-hevc-10-bit-pcm-24-bit-dd-dolby-atmos.250483/]]></link>
                <description><![CDATA[<article>
<blockquote class="messageText SelectQuoteContainer ugc baseHtml">
<div style="text-align: center"><a href="https://ibb.co/yhZgVRk" target="_blank" class="externalLink" rel="nofollow"><img src="https://i.ibb.co/Gs8CFJM/Shy-m-Oublie-moi-chf3-iris2-mp4-thumbs.jpg" class="bbCodeImage LbImage" alt="[​IMG]" data-url="https://i.ibb.co/Gs8CFJM/Shy-m-Oublie-moi-chf3-iris2-mp4-thumbs.jpg"></a><br>
<a href="https://ibb.co/4dFHvHt" target="_blank" class="externalLink" rel="nofollow"><img src="https://i.ibb.co/JQc969t/Shy-m-Oublie-moi-chf3-iris2-mp4-snapshot-00-27-590.jpg" class="bbCodeImage LbImage" alt="[​IMG]" data-url="https://i.ibb.co/JQc969t/Shy-m-Oublie-moi-chf3-iris2-mp4-snapshot-00-27-590.jpg"></a><br>
<a href="https://ibb.co/5B40Qs4" target="_blank" class="externalLink" rel="nofollow"><img src="https://i.ibb.co/f4Fg3rF/Shy-m-Oublie-moi-chf3-iris2-mp4-snapshot-00-31-289.jpg" class="bbCodeImage LbImage" alt="[​IMG]" data-url="https://i.ibb.co/f4Fg3rF/Shy-m-Oublie-moi-chf3-iris2-mp4-snapshot-00-31-289.jpg"></a><br>
<a href="https://ibb.co/G72TT1P" target="_blank" class="externalLink" rel="nofollow"><img src="https://i.ibb.co/kK811rc/Shy-m-Oublie-moi-chf3-iris2-mp4-snapshot-00-58-573.jpg" class="bbCodeImage LbImage" alt="[​IMG]" data-url="https://i.ibb.co/kK811rc/Shy-m-Oublie-moi-chf3-iris2-mp4-snapshot-00-58-573.jpg"></a><br>
<br>
<div class="bbCodeBlock bbCodeVfcHH HiddenContent">
<div class="attribution type">Hidden Content:</div>
<blockquote>You must either reply or click 'Like' to see the hidden information contained here.</blockquote>
</div></div>
<div class="messageTextEndMarker">&nbsp;</div>
</blockquote>
</article>]]></description>
                <author><![CDATA[ADHDerby]]></author>
                </item>

                
                <item>
                <title><![CDATA[【UPSCALED】All Saints - I Know Where It's At (2160p)]]></title>
                <link><![CDATA[https://sharemania.us/threads/all-saints-i-know-where-its-at-2160p.250482/]]></link>
                <description><![CDATA[<article>
<blockquote class="messageText SelectQuoteContainer ugc baseHtml">
<img src="https://images2.imgbox.com/3d/8e/JMurVJ2A_o.jpg" class="bbCodeImage LbImage" alt="[​IMG]" data-url="https://images2.imgbox.com/3d/8e/JMurVJ2A_o.jpg" style=""><br>
<br>
<b>Genre: <span style="color: #0059b3">Rock</span> <br>
Style: <span style="color: #0059b3">Pop Rock</span> <br>
Year: <span style="color: #0059b3">1987</span> <br>
Video Source: <span style="color: #0059b3">Apple Music, thanks SonMaxime</span><br>
Audio Source: <span style="color: #0059b3">DVD, PCM 16-bit 48 kHz</span></b><br>
<br>
"<b>With or Without You</b>" is a song by Irish rock band U2. It is the third track on their fifth studio album, <i>The Joshua Tree</i> (1987), and was released as the album's lead single on 16 March 1987. The song was the group's most successful single at the time, becoming their first number-one hit in both the United States and Canada by topping the <i>Billboard</i> Hot 100 for three weeks and the <i>RPM</i> national singles chart for one week, with a further three weeks at number two.<br>
<br>
"With or Without You" features sustained guitar parts played by guitarist the Edge with a prototype of the Infinite Guitar, along with vocals by lead singer Bono and a bassline by bassist Adam Clayton. The rock ballad originated from a demo recorded in late 1985 that the group continued to work on throughout <i>The Joshua Tree</i> sessions. Ostensibly a song about troubled love, the track's lyrics were inspired by Bono's conflicting feelings about the lives he led as a musician and domestic man.<br>
<br>
Critics praised the song upon its release. It is frequently performed on the band's tours, and it has appeared on many of their compilation albums and concert films. "With or Without You" is U2's second most frequently covered song. In 2004, <i>Rolling Stone</i> magazine ranked the song 131st on its list of "The 500 Greatest Songs of All Time".<br>
<br>
Two videos were shot in Dublin in February 1987 and were co-directed by Meiert Avis and Matt Mahurin. The first includes abstracts shots of dancer (and Edge's future wife) Morleigh Steinberg edited in between shots of the band playing the song. A second alternative version can be found in the Super Deluxe version of the album.<br>
<br>
On 15 March 2024, the song became the first U2 song to reach 1 billion streams on Spotify.<br>
<br>
<b>Release Info</b><br>
The video track is the HD Remaster downloaded from Apple Music and left as is.<br>
The PCM track is ripped from DVD (16-bit 48 kHz), synced with Adobe Audition.<br>
The timed lyrics are synced and edited. Enable the subtitles to see the lyrics.<br>
<br>
<div class="ToggleTriggerAnchor bbCodeSpoilerContainer">
<button type="button" class="button bbCodeSpoilerButton ToggleTrigger Tooltip JsOnly" data-target="> .SpoilerTarget"><span>Spoiler: <span class="SpoilerTitle">Media Info</span></span></button>
<div class="SpoilerTarget bbCodeSpoilerText">
<div class="bbCodeBlock bbCodeCode">
<div class="type">Code:</div>
<pre>General
Unique ID                      : 62671994254746275976725849721846281276 (0x2F262FE1EAB8DB1115134A7E1C16B43C)
Complete name                  : U2 - With or Without You.mkv
Format                         : Matroska
Format version                 : Version 4 / Version 2
File size                      : 414 MiB
Duration                       : 4 min 52 s
Overall bit rate               : 11.9 Mb/s
Frame rate                     : 25.000 FPS
Encoded date                   : 2024-07-16 14:51:03 UTC
Writing application            : mkvmerge v85.0 ('Shame For You') 64-bit
Writing library                : libebml v1.4.5 + libmatroska v1.7.1
Cover                          : Yes
Attachments                    : cover.jpg

Video
ID                             : 1
Format                         : AVC
Format/Info                    : Advanced Video Codec
Format profile                 : High@L4
Format settings                : CABAC / 5 Ref Frames
Format settings, CABAC         : Yes
Format settings, Reference fra : 5 frames
Format settings, Slice count   : 8 slices per frame
Codec ID                       : V_MPEG4/ISO/AVC
Duration                       : 4 min 52 s
Bit rate                       : 10.1 Mb/s
Width                          : 1 352 pixels
Height                         : 1 080 pixels
Display aspect ratio           : 5:4
Frame rate mode                : Constant
Frame rate                     : 25.000 FPS
Color space                    : YUV
Chroma subsampling             : 4:2:0
Bit depth                      : 8 bits
Scan type                      : Progressive
Bits/(Pixel*Frame)             : 0.276
Stream size                    : 351 MiB (85%)
Language                       : English
Default                        : Yes
Forced                         : No
Color range                    : Limited
Color primaries                : BT.709
Transfer characteristics       : BT.709
Matrix coefficients            : BT.709

Audio #1
ID                             : 2
Format                         : PCM
Format settings                : Little / Signed
Codec ID                       : A_PCM/INT/LIT
Duration                       : 4 min 52 s
Bit rate mode                  : Constant
Bit rate                       : 1 536 kb/s
Channel(s)                     : 2 channels
Sampling rate                  : 48.0 kHz
Frame rate                     : 25.000 FPS (1920 SPF)
Bit depth                      : 16 bits
Stream size                    : 53.5 MiB (13%)
Title                          : Lossless 16-bit 48 kHz
Language                       : English
Default                        : Yes
Forced                         : No

Audio #2
ID                             : 3
Format                         : AAC LC
Format/Info                    : Advanced Audio Codec Low Complexity
Codec ID                       : A_AAC-2
Duration                       : 4 min 52 s
Bit rate                       : 282 kb/s
Channel(s)                     : 2 channels
Channel layout                 : L R
Sampling rate                  : 48.0 kHz
Frame rate                     : 46.875 FPS (1024 SPF)
Compression mode               : Lossy
Stream size                    : 9.82 MiB (2%)
Title                          : Original track
Default                        : No
Forced                         : No

Text
ID                             : 4
Format                         : UTF-8
Codec ID                       : S_TEXT/UTF8
Codec ID/Info                  : UTF-8 Plain Text
Duration                       : 3 min 36 s
Bit rate                       : 33 b/s
Frame rate                     : 0.204 FPS
Count of elements              : 44
Stream size                    : 905 Bytes (0%)
Title                          : Lyrics
Language                       : English
Default                        : No
Forced                         : No
</pre>
</div></div>
</div><br>
<b>Note to the peeps @ RuTracker: Give credit if you post the work of someone else!</b><br>
- Hurby4 aka ADHDerby<br>
<br>
<div class="bbCodeBlock bbCodeVfcHH HiddenContent">
<div class="attribution type">Hidden Content:</div>
<blockquote>You must reply before you can see the hidden data contained here.</blockquote>
</div>
<div class="messageTextEndMarker">&nbsp;</div>
</blockquote>
</article>]]></description>
                <author><![CDATA[vjrhymes]]></author>
                </item>

                
                <item>
                <title><![CDATA[【UPSCALED】Michael Jackson - Bad (2160p)]]></title>
                <link><![CDATA[https://sharemania.us/threads/michael-jackson-bad-2160p.250478/]]></link>
                <description><![CDATA[<article>
<blockquote class="messageText SelectQuoteContainer ugc baseHtml">
Hi, if anyone could make this Qobuz album available I would greatly appreciate it!<br>
<br>
<a href="https://www.qobuz.com/gb-en/album/transa-caetano-veloso/0060253706597" target="_blank" class="externalLink" rel="nofollow">https://www.qobuz.com/gb-en/album/transa-caetano-veloso/0060253706597</a>
<div class="messageTextEndMarker">&nbsp;</div>
</blockquote>
</article>]]></description>
                <author><![CDATA[vjrhymes]]></author>
                </item>

                </channel></rss>